<?xml version="1.0" encoding="utf-8"?>
<!-- Generator: Adobe Illustrator 19.0.0, SVG Export Plug-In . SVG Version: 6.00 Build 0)  -->
<svg version="1.1" id="Layer_1" xmlns="http://www.w3.org/2000/svg" xmlns:xlink="http://www.w3.org/1999/xlink" x="0px" y="0px"
	 viewBox="-55 -190 487.5 480" style="enable-background:new -55 -190 487.5 480;" xml:space="preserve">
<style type="text/css">
	.st0{fill:#FFFFFF;stroke:#000000;stroke-width:3;stroke-miterlimit:10;}
	.st1{stroke:#FFFFFF;stroke-miterlimit:10;}
	.st2{fill:#FFFFFF;}
</style>
<ellipse class="st0" cx="186" cy="50" rx="240.8" ry="240"/>
<g id="svg_1">
	<g>
		<path id="path5888" d="M279.7-135.3c-57.2,22.4-113.4,47.1-170.2,70.7c-19.9,8.3-39.8,16.5-59.8,25l23,247.3
			c0.3,3,2.9,5.2,5.8,4.9L327,189.1c2.9-0.2,5-2.9,4.8-5.9L312.1-26c-0.7-4.3-6.8-6.6-10.5-5.8c-71.1,7.7-142.3,14.5-213.5,21.4
			c68.8-28.4,137.5-56.9,206.3-85.2L279.7-135.3L279.7-135.3z"/>
		<path id="path5767" d="M303-28.8L74.1-7.1l-8.3,3.5l-1.5-2.6l-9.6,0.9c-2.9,0.2-5,2.9-4.8,5.9l19.9,209.2c0.3,3,2.9,5.2,5.8,4.9
			L324,191.2c2.9-0.2,5-2.9,4.8-5.9l-20-209.2C308.5-26.9,305.9-29.1,303-28.8"/>
	</g>
	<path id="path5769" class="st1" d="M78.3-5.6l212.8-87.9l2-6.1L51-35.1L68.6-4.7L70-2.2L78.3-5.6L78.3-5.6z"/>
	<path id="path5777" class="st1" d="M74-8l216.9-90.7l-24.7-30.7l-219.6,92L64.2-7.1l1.5,2.6L74-8L74-8z"/>
	<path id="path5795" class="st1" d="M304.6-29.9L65.8-6.5l-7.1,38.5L301.6,9.8L304.6-29.9L304.6-29.9z"/>
	<path id="path5811" d="M65.2-30.5c-0.1,0-0.3,0-0.4,0c-2.1,0.2-3.8,1.8-4.3,3.8c0,0.1-0.1,0.3-0.1,0.4c0,0.3,0,0.7,0,1
		c0,0.1,0,0.3,0.1,0.4c0,0.1,0.1,0.3,0.1,0.4c0,0.1,0.1,0.3,0.2,0.4l0,0c0.1,0.1,0.1,0.2,0.2,0.4c0.3,0.6,0.7,1,1.1,1.5
		c0.4,0.3,1,0.7,1.6,0.9l0,0c0.1,0,0.3,0.1,0.4,0.1c0.3,0.1,0.7,0.1,0.9,0.1c0.1,0,0.3,0,0.4,0c0.3,0,0.7-0.1,1-0.2
		c0.1,0,0.3-0.1,0.4-0.1c0.3-0.1,0.6-0.2,0.8-0.4c0.2-0.1,0.3-0.3,0.6-0.4l0.1-0.1c0.2-0.2,0.3-0.3,0.4-0.6l0.1-0.1l0,0
		c0.1-0.1,0.1-0.2,0.2-0.3c0.1-0.1,0.1-0.2,0.2-0.4c0.2-0.4,0.3-0.9,0.3-1.3c0-0.3,0-0.7,0-1c0-0.1,0-0.3-0.1-0.4
		c0-0.1-0.1-0.2-0.1-0.4l0,0c0-0.1-0.1-0.2-0.1-0.3c0-0.1-0.1-0.2-0.1-0.3l0,0v-0.1c0-0.1-0.1-0.2-0.2-0.3c-0.1-0.1-0.1-0.2-0.2-0.3
		c-0.2-0.3-0.4-0.6-0.8-0.8c-0.1-0.1-0.2-0.2-0.3-0.2l-0.1-0.1l0,0c-0.1-0.1-0.2-0.1-0.3-0.2l0,0c-0.2-0.1-0.3-0.1-0.6-0.2h-0.1
		c-0.1,0-0.3-0.1-0.4-0.1c-0.1,0-0.2,0-0.3-0.1C65.6-30.5,65.3-30.5,65.2-30.5L65.2-30.5z"/>
	<path id="path5823" d="M328.3,177.4c0.2,2.6-1.7,4.8-4.2,5L91.2,203.9c-2.6,0.2-4.8-1.7-5-4.2L71.6,41.4c-0.2-2.6,1.7-4.8,4.2-5
		l232.9-21.4c2.6-0.2,4.8,1.7,5,4.2L328.3,177.4L328.3,177.4z"/>
	<path id="path5779" class="st2" d="M276.4-133.2l-14.1,5.3l24.6,31l6.5-2.8L276.4-133.2L276.4-133.2z M239.8-118.6l-32,13.7
		l24.6,31l32-13.7C264.3-87.6,239.8-118.6,239.8-118.6z M179.1-93.6l-32,13.7l24.6,31l32-13.7L179.1-93.6z M120.4-68.6l-32,13.7
		l24.6,31l32-13.7C145-37.6,120.4-68.6,120.4-68.6z M46.2-37.5L52,23.4l27.4-10.9l1.3-14.8L46.2-37.5L46.2-37.5z M305-28.2
		l-7.3,38.9l7.1-0.6l2.2-37.6L305-28.2L305-28.2z M271.4-26.7l-34.1,3.3L230,17.7l33.9-3.8L271.4-26.7L271.4-26.7z M214.6-21
		l-33.9,2.8l-7.2,39.8l34.3-1.1L214.6-21L214.6-21z M153.1-15.2l-33.9,3.3L112,27.6l33.9-2.1L153.1-15.2L153.1-15.2z"/>
</g>
</svg>
