<?xml version="1.0" encoding="utf-8"?>
<!-- Generator: Adobe Illustrator 19.0.0, SVG Export Plug-In . SVG Version: 6.00 Build 0)  -->
<svg version="1.1" id="Layer_1" xmlns="http://www.w3.org/2000/svg" xmlns:xlink="http://www.w3.org/1999/xlink" x="0px" y="0px"
	 viewBox="97 -190 487.5 480" style="enable-background:new 97 -190 487.5 480;" xml:space="preserve">
<style type="text/css">
	.st0{fill:#FFFFFF;stroke:#000000;stroke-width:3;stroke-miterlimit:10;}
	.st1{fill:#FFFFFF;}
</style>
<ellipse class="st0" cx="340" cy="50" rx="240.8" ry="240"/>
<g>
	<path class="st1" d="M218.7-92c-11.1,0-22.5,0-33.6,0c0,90.2,0,180.8,0,271c103.5,0,207.4,0,310.9,0c1.6,0,3.2-0.5,4.7-0.8
		c-4.1-0.3-7.9-0.3-11.7-1.1c-16.1-3.5-32.3-7.3-48.4-11.1c-3.2-0.8-6.6-2.4-9.2-4.6C354.5,95.5,277.6,29.7,200.6-36.2
		c-1.9-1.6-3.8-3.3-5.4-4.9c-12-12.7-11.4-27.4,1.3-39.6C202.2-86.9,209.8-90.1,218.7-92z"/>
	<path class="st1" d="M500.8,170.8c0-87.5,0-175.3,0-262.9c-91.2,0-182.4,0-273.5,0c14.9,3.3,24.7,12.2,34.8,21.1
		c71.2,61.2,142.5,122.2,214,183.2c5.7,4.9,9.5,10.3,11.4,17.1C491.3,143.2,496,157,500.8,170.8z"/>
	<path d="M500.8,170.8c-4.4-13.8-9.5-27.6-13.3-41.7c-1.9-6.8-5.4-11.9-11.4-17.1c-71.6-61-142.8-121.9-214-183.2
		c-10.1-8.7-19.9-17.9-34.8-21.1c-2.8,0-5.7,0-8.2,0c-8.9,1.9-16.5,5.1-22.5,11.1c-12.7,12.2-13.3,26.8-1.3,39.6
		c1.6,1.6,3.5,3.3,5.4,4.9c76.6,66.1,153.6,132,230.5,197.8c2.5,2.2,6,3.5,9.2,4.6c16.1,4.1,32.3,7.6,48.4,11.1
		c3.8,0.8,7.9,0.8,11.7,1.1C500.8,175.7,500.8,173.3,500.8,170.8z M233.6-79.3c2.8,1.9,6,3.5,8.5,6C315.2-11,388.4,51.6,461.5,114.2
		c4.4,3.8,5.4,8.7,4.4,13.3c-1.9,7-6.6,8.9-14.9,4.3c-1.3-0.8-2.2-1.9-3.5-2.7C372.9,66,298.1,2.8,223.4-60
		c-0.9-0.8-1.9-1.9-2.5-2.4C225-68.2,228.8-73.3,233.6-79.3z M215.5-58.7c0.9,1.1,2.2,2.4,3.5,3.8C294.3,8.5,369.7,72.2,445,135.6
		c3.8,3,4.4,8.1,1.9,11.7c-2.2,3-7.6,4.1-12.3,1.9c-1.9-0.8-3.5-2.4-5.1-3.8C356.1,82.5,282.3,19.6,208.9-43.2
		c-1.6-1.4-3.2-2.7-4.7-4.3c-1.6-1.9-2.8-4.1-4.1-5.7C205.4-55.2,209.8-56.8,215.5-58.7z M473.5,125c2.5,8.1,5.1,16,7.6,24.1
		c1.3,4.3-2.2,11.7-7,13.3c-0.6,0.3-1.3,0.3-1.9,0c-9.8-2.2-19.3-4.3-28.5-6.5c2.8-2.2,6.6-4.1,8.2-6.8c1.9-2.7,2.2-6.5,3.2-9.8
		C466.9,140.8,471.6,132.9,473.5,125z"/>
	<path class="st1" d="M233.6-79.3c-4.4,6-8.5,11.1-12.7,16.8c0.6,0.5,1.6,1.6,2.5,2.4C298.1,2.8,372.9,66,447.6,129.1
		c1.3,0.8,2.2,1.9,3.5,2.7c8.2,4.6,13,2.7,14.9-4.3c1.3-4.6,0-9.5-4.1-13.3C388.4,51.6,315.2-11,242.1-73.3
		C239.6-75.8,236.1-77.4,233.6-79.3z"/>
	<path class="st1" d="M215.5-58.7c-5.7,2.2-10.1,3.8-15.5,5.4c1.3,1.6,2.5,3.8,4.1,5.7c1.3,1.6,3.2,3,4.7,4.3
		c73.5,62.9,147.2,125.7,220.7,188.6c1.6,1.4,3.2,3,5.1,3.8c4.7,1.9,10.1,0.8,12.3-1.9c2.5-3.5,1.9-8.4-1.9-11.7
		C369.7,72.2,294.7,8.5,219.3-54.9C217.7-56.3,216.5-57.9,215.5-58.7z"/>
	<path class="st1" d="M473.5,125c-2.2,7.9-6.6,15.7-18.4,14.6c-0.9,3.3-1.3,7-3.2,9.8c-1.9,2.7-5.4,4.6-8.2,6.8
		c9.2,2.2,18.7,4.3,28.5,6.5c0.6,0.3,1.6,0,1.9,0c4.4-1.9,8.2-8.9,7-13.3C478.6,141,476.1,133.2,473.5,125z"/>
</g>
<g>
	<path d="M483.8-109.4c13.9,17.6,27.9,35.3,41.9,53c-0.4,0.3-0.7,0.6-1.1,0.9C419.9,27.2,315.2,110,210.5,192.8c-3.8,3-7.6,6-11.4,9
		c-13.9-17.6-27.9-35.3-41.9-53c0.3-0.2,0.6-0.5,0.9-0.7C265.9,62.9,373.8-22.4,481.7-107.7C482.4-108.2,483.1-108.9,483.8-109.4z
		 M231.4,94.9c-3.9,3.1-7.6,6-11.4,9c0.2,0.3,0.4,0.6,0.6,0.9c2.8,3.5,5.6,7.1,8.4,10.7c0.4,0.5,0.3,0.8-0.4,1.3
		c-1.8,1.3-3.5,2.8-5.3,4.2c-0.5,0.4-1,0.8-1.6,1.3c-0.2-0.3-0.4-0.5-0.6-0.7c-2.8-3.5-5.6-7.1-8.4-10.7c-0.6-0.8-0.6-0.8-1.5,0
		c-3.3,2.6-6.7,5.3-10,7.9c-0.3,0.2-0.5,0.4-0.8,0.7c3.2,4,6.4,8.1,9.5,12c-2.7,2.1-5.2,4.1-7.8,6.2c-3.2-4-6.4-8.1-9.6-12.1
		c-3.8,3-7.6,6-11.4,9c0.2,0.4,0.4,0.7,0.6,1c6.5,8.2,13,16.5,19.5,24.7c0.6,0.8,0.6,0.9-0.4,1.7c-1.9,1.5-3.8,3-5.6,4.4
		c-1.3,1-1.3,1-2,0.1c-6.5-8.2-12.9-16.3-19.4-24.5c-0.3-0.3-0.6-0.7-0.9-1c-2.7,2.2-5.4,4.3-8.1,6.4c-0.2,0.1-0.2,0.5-0.2,0.7
		c0.1,0.3,0.3,0.4,0.5,0.7c11.9,15,23.8,30.1,35.7,45.1c0.9,1.1,0.7,1.1,2.2,0C275.7,136.4,348.4,78.9,421,21.5
		c32.2-25.4,64.4-50.9,96.6-76.4c1.1-0.9,1.1-0.9,0.5-1.6C506-71.7,493.9-87,481.9-102.3c-0.2-0.2-0.4-0.4-0.6-0.6
		c-2.9,2.3-5.7,4.5-8.5,6.7c0.3,0.4,0.5,0.8,0.8,1.1c6.5,8.2,13,16.4,19.5,24.7c0.6,0.7,0.5,0.8-0.4,1.5c-2,1.5-3.9,3.1-5.8,4.6
		c-1.1,0.9-1.1,0.9-1.9,0c-6.1-7.7-12.1-15.3-18.2-23c-0.6-0.7-1.1-1.4-1.6-2.1c-0.3-0.4-0.7-0.4-1.3,0c-3.4,2.7-6.8,5.3-10.1,8
		c-0.2,0.2-0.4,0.3-0.7,0.6c3.2,4,6.4,8.1,9.6,12.1c-2.6,2.1-5.2,4.1-7.8,6.2c-3.2-4-6.4-8.1-9.6-12.1c-0.4,0.3-0.7,0.5-1,0.7
		c-3.2,2.5-6.4,5.1-9.7,7.7c-1,0.8-1,0.9-0.4,1.7c2.8,3.5,5.6,7,8.3,10.6c0.2,0.2,0.3,0.4,0.5,0.7c-0.3,0.2-0.4,0.4-0.7,0.6
		c-2.1,1.6-4.1,3.3-6.3,4.9c-0.7,0.6-0.9,0.5-1.4-0.1c-2.8-3.5-5.6-7.1-8.4-10.7c-0.2-0.3-0.4-0.4-0.7-0.7c-3.9,3.1-7.6,6-11.4,9
		c3.2,4,6.4,8.1,9.6,12.1c-2.6,2.1-5.1,4-7.7,6.1c-0.2-0.2-0.4-0.4-0.6-0.7c-2.8-3.5-5.6-7.1-8.4-10.6c-0.6-0.8-0.6-0.8-1.7,0
		c-3.3,2.6-6.5,5.1-9.7,7.7c-0.3,0.2-0.6,0.5-1,0.8c3.2,4.1,6.4,8.1,9.6,12.1c-2.6,2.1-5.2,4.1-7.8,6.2c-3.2-4-6.4-8.1-9.6-12.1
		c-0.3,0.3-0.6,0.5-0.8,0.6c-3.3,2.6-6.5,5.1-9.7,7.7c-1,0.8-1,0.8-0.4,1.5c0.1,0.1,0.2,0.2,0.3,0.3c6.5,8.2,13,16.4,19.5,24.7
		c0.6,0.7,0.5,0.8-0.4,1.5c-2,1.6-4,3.2-6,4.8c-1,0.8-1,0.7-1.6,0c-6.5-8.3-13.1-16.6-19.7-24.9c-0.2-0.3-0.5-0.5-0.7-0.8
		c-3.9,3.1-7.6,6-11.5,9.1c3.2,4,6.4,8.1,9.6,12.1c-2.6,2.1-5.2,4.1-7.8,6.2c-3.2-4-6.4-8.1-9.6-12.1c-0.3,0.3-0.6,0.5-0.8,0.6
		c-3.3,2.6-6.6,5.3-10,7.9c-1,0.8-1,0.8-0.4,1.5c2.8,3.6,5.7,7.2,8.6,10.8c0.3,0.4,0.3,0.7-0.2,1.2c-2.1,1.6-4.1,3.3-6.3,4.9
		c-0.3,0.2-0.6,0.4-0.9,0.6c-3.2-4-6.4-8.1-9.5-12c-3.9,3.1-7.6,6-11.4,9c3.2,4,6.3,8,9.5,12c-0.3,0.3-0.6,0.5-0.8,0.7
		c-2.1,1.6-4.1,3.3-6.2,4.9c-0.6,0.5-0.8,0.5-1.2,0c-2.9-3.6-5.7-7.2-8.6-10.9c-0.4-0.5-0.7-0.5-1.4,0c-3.4,2.7-6.8,5.3-10.2,8
		c-0.2,0.2-0.5,0.4-0.7,0.7c3.2,4.1,6.4,8.1,9.5,12c-2.6,2.1-5.2,4.1-7.8,6.2c-3.2-4-6.4-8.1-9.5-12c-3.9,3.1-7.6,6-11.5,9.1
		c0.3,0.3,0.5,0.6,0.7,0.9c6.5,8.3,13.1,16.6,19.6,24.8c0.6,0.7,0.5,0.8-0.4,1.5c-1.9,1.5-3.6,2.9-5.5,4.3c-1.5,1.2-1.5,1.2-2.4,0.1
		c-6.5-8.2-13-16.4-19.5-24.6c-0.6-0.8-0.6-0.8-1.6,0c-3.3,2.6-6.5,5.1-9.7,7.7c-0.3,0.2-0.5,0.4-0.9,0.7c3.2,4.1,6.4,8.1,9.6,12.1
		c-2.6,2.1-5.2,4.1-7.8,6.2c-3.2-4-6.4-8.1-9.6-12.1c-0.4,0.3-0.7,0.5-1,0.8c-3.1,2.5-6.2,4.9-9.3,7.4c-1.5,1.2-1.5,1-0.5,2.3
		c2.8,3.5,5.5,6.9,8.2,10.4c0.4,0.5,0.3,0.7-0.3,1.2c-2.1,1.6-4.1,3.3-6.2,4.9c-0.3,0.2-0.6,0.4-0.9,0.6
		C237.8,102.9,234.6,98.9,231.4,94.9z"/>
	<path class="st1" d="M483.8-109.4c-0.7,0.6-1.5,1.2-2.2,1.7C373.8-22.4,265.9,62.9,158.1,148.1c-0.3,0.2-0.6,0.5-0.9,0.7
		c-0.1-0.2-0.5-0.3,0.1-0.6c0.1-0.1,0.2-0.1,0.3-0.2C266,62.2,374.5-23.5,483-109.3C483.3-109.5,483.6-110,483.8-109.4z"/>
	<path class="st1" d="M199.1,201.8c3.8-3,7.6-6,11.4-9C315.2,110,419.9,27.2,524.6-55.6c0.4-0.3,0.7-0.6,1.1-0.9
		c0.1,0.2,0.5,0.3-0.1,0.6c-0.1,0.1-0.2,0.1-0.3,0.2c-108.5,85.8-217,171.5-325.5,257.3C199.6,201.9,199.3,202.4,199.1,201.8z"/>
	<path class="st1" d="M231.4,94.9c3.2,4,6.3,8,9.5,12c0.3-0.3,0.6-0.4,0.9-0.6c2.1-1.6,4.1-3.3,6.2-4.9c0.6-0.5,0.6-0.8,0.3-1.2
		c-2.8-3.5-5.5-6.9-8.2-10.4c-1-1.3-1-1.1,0.5-2.3c3.1-2.5,6.2-4.9,9.3-7.4c0.3-0.2,0.6-0.5,1-0.8c3.2,4.1,6.4,8.1,9.6,12.1
		c2.6-2.1,5.2-4.1,7.8-6.2c-3.2-4-6.3-8-9.6-12.1c0.3-0.3,0.6-0.5,0.9-0.7c3.3-2.6,6.5-5.1,9.7-7.7c1-0.8,1-0.8,1.6,0
		c6.5,8.2,13,16.4,19.5,24.6c0.9,1.1,0.9,1.1,2.4-0.1c1.9-1.5,3.6-2.9,5.5-4.3c0.9-0.7,0.9-0.8,0.4-1.5
		c-6.5-8.3-13.1-16.6-19.6-24.8c-0.2-0.3-0.4-0.5-0.7-0.9c3.8-3,7.6-6,11.5-9.1c3.1,4,6.3,8,9.5,12c2.7-2.1,5.2-4.1,7.8-6.2
		c-3.1-4-6.3-8-9.5-12c0.3-0.3,0.5-0.5,0.7-0.7c3.4-2.7,6.8-5.3,10.2-8c0.7-0.5,1-0.5,1.4,0c2.9,3.6,5.7,7.2,8.6,10.9
		c0.4,0.5,0.6,0.5,1.2,0c2-1.7,4.1-3.3,6.2-4.9c0.3-0.2,0.5-0.5,0.8-0.7c-3.2-4-6.3-8-9.5-12c3.9-3.1,7.6-6,11.4-9
		c3.2,4,6.3,8,9.5,12c0.3-0.3,0.6-0.4,0.9-0.6c2.1-1.6,4.1-3.3,6.3-4.9c0.6-0.5,0.6-0.7,0.2-1.2c-2.8-3.6-5.7-7.2-8.6-10.8
		c-0.6-0.8-0.6-0.8,0.4-1.5c3.3-2.6,6.6-5.3,10-7.9c0.3-0.2,0.5-0.4,0.8-0.6c3.2,4,6.4,8.1,9.6,12.1c2.6-2.1,5.2-4.1,7.8-6.2
		c-3.2-4-6.3-8-9.6-12.1c3.9-3.1,7.6-6,11.5-9.1c0.2,0.3,0.5,0.5,0.7,0.8c6.5,8.3,13.1,16.6,19.7,24.9c0.6,0.8,0.7,0.7,1.6,0
		c2-1.6,4-3.2,6-4.8c0.9-0.7,0.9-0.8,0.4-1.5c-6.5-8.2-13-16.4-19.5-24.7c-0.1-0.1-0.2-0.2-0.3-0.3c-0.6-0.8-0.6-0.8,0.4-1.5
		c3.3-2.6,6.5-5.1,9.7-7.7c0.3-0.2,0.5-0.4,0.8-0.6c3.2,4,6.4,8.1,9.6,12.1c2.6-2.1,5.1-4,7.8-6.2c-3.2-4-6.4-8.1-9.6-12.1
		c0.4-0.3,0.7-0.6,1-0.8c3.3-2.6,6.5-5.1,9.7-7.7c1-0.8,1-0.8,1.7,0c2.8,3.5,5.6,7.1,8.4,10.6c0.2,0.2,0.4,0.4,0.6,0.7
		c2.6-2.1,5.1-4,7.7-6.1c-3.2-4-6.3-8-9.6-12.1c3.9-3.1,7.6-6,11.4-9c0.2,0.2,0.4,0.4,0.7,0.7c2.8,3.5,5.6,7.1,8.4,10.7
		c0.4,0.5,0.7,0.6,1.4,0.1c2-1.7,4.1-3.3,6.3-4.9c0.2-0.2,0.4-0.3,0.7-0.6c-0.2-0.2-0.3-0.4-0.5-0.7c-2.8-3.5-5.6-7-8.3-10.6
		c-0.7-0.9-0.6-0.9,0.4-1.7c3.2-2.5,6.4-5.1,9.7-7.7c0.3-0.2,0.6-0.5,1-0.7c3.2,4,6.3,8,9.6,12.1c2.6-2.1,5.2-4.1,7.8-6.2
		c-3.2-4-6.3-8-9.6-12.1c0.3-0.2,0.4-0.4,0.7-0.6c3.4-2.7,6.8-5.3,10.1-8c0.6-0.5,0.9-0.5,1.3,0c0.6,0.7,1.1,1.4,1.6,2.1
		c6.1,7.7,12.1,15.3,18.2,23c0.7,0.9,0.7,0.9,1.9,0c2-1.5,3.9-3.1,5.8-4.6c0.9-0.7,0.9-0.8,0.4-1.5c-6.5-8.2-13-16.4-19.5-24.7
		c-0.3-0.3-0.5-0.8-0.8-1.1c2.8-2.2,5.7-4.5,8.5-6.7c0.2,0.2,0.4,0.4,0.6,0.6C494-86.9,506-71.6,518.1-56.3c0.6,0.7,0.6,0.7-0.5,1.6
		C485.4-29.3,453.2-3.9,421,21.6C348.4,79,275.7,136.4,203.1,193.9c-1.5,1.2-1.3,1.2-2.2,0c-11.9-15-23.8-30.1-35.7-45.1
		c-0.2-0.2-0.4-0.4-0.5-0.7c-0.1-0.2,0-0.5,0.2-0.7c2.7-2.1,5.3-4.2,8.1-6.4c0.3,0.4,0.7,0.7,0.9,1c6.5,8.2,12.9,16.3,19.4,24.5
		c0.7,0.9,0.7,0.9,2-0.1c1.9-1.5,3.8-3,5.6-4.4c1-0.8,1-0.9,0.4-1.7c-6.5-8.2-13-16.5-19.5-24.7c-0.3-0.3-0.5-0.7-0.6-1
		c3.9-3.1,7.6-6,11.4-9c3.2,4,6.3,8,9.6,12.1c2.6-2.1,5.2-4.1,7.8-6.2c-3.2-4-6.3-8-9.5-12c0.3-0.3,0.6-0.5,0.8-0.7
		c3.3-2.6,6.7-5.3,10-7.9c0.9-0.7,0.9-0.7,1.5,0c2.8,3.5,5.6,7.1,8.4,10.7c0.2,0.2,0.3,0.4,0.6,0.7c0.6-0.5,1.1-0.9,1.6-1.3
		c1.7-1.4,3.5-2.8,5.3-4.2c0.7-0.5,0.8-0.8,0.4-1.3c-2.9-3.5-5.6-7.1-8.4-10.7c-0.2-0.3-0.4-0.6-0.6-0.9
		C223.8,100.9,227.5,97.9,231.4,94.9z"/>
</g>
</svg>
