<?xml version="1.0" encoding="utf-8"?>
<!-- Generator: Adobe Illustrator 19.0.0, SVG Export Plug-In . SVG Version: 6.00 Build 0)  -->
<svg version="1.1" id="Layer_1" xmlns="http://www.w3.org/2000/svg" xmlns:xlink="http://www.w3.org/1999/xlink" x="0px" y="0px"
	 viewBox="97 -190 487.5 480" style="enable-background:new 97 -190 487.5 480;" xml:space="preserve">
<style type="text/css">
	.st0{fill:#FFFFFF;stroke:#000000;stroke-width:3;stroke-miterlimit:10;}
</style>
<ellipse class="st0" cx="340" cy="50" rx="240.8" ry="240"/>
<g>
	<path d="M480,157.5l-71.2-78.9c-10.6,18.3-24.7,33.8-41.2,45.6l71.2,78.9c11.4,12.6,29.8,12.6,41.2,0
		C491.4,190.5,491.4,170.1,480,157.5z"/>
	<path d="M410.9-2.5c0-71.2-52.1-129-116.4-129S178-73.7,178-2.5s52.1,129,116.4,129S410.9,68.8,410.9-2.5z M294.5,94.3
		c-48.2,0-87.3-43.4-87.3-96.7s39.2-96.7,87.3-96.7s87.3,43.4,87.3,96.7S342.6,94.3,294.5,94.3z"/>
	<path d="M226.5-2.5h19.4c0-29.6,21.8-53.7,48.5-53.7v-21.5C257-77.7,226.5-43.9,226.5-2.5z"/>
</g>
</svg>
