<?xml version="1.0" encoding="utf-8"?>
<!-- Generator: Adobe Illustrator 19.0.0, SVG Export Plug-In . SVG Version: 6.00 Build 0)  -->
<svg version="1.1" id="Layer_1" xmlns="http://www.w3.org/2000/svg" xmlns:xlink="http://www.w3.org/1999/xlink" x="0px" y="0px"
	 viewBox="97 -190 487.5 480" style="enable-background:new 97 -190 487.5 480;" xml:space="preserve">
<style type="text/css">
	.st0{fill:#FFFFFF;stroke:#000000;stroke-width:3;stroke-miterlimit:10;}
	.st1{fill:#010002;}
</style>
<ellipse class="st0" cx="340" cy="50" rx="240.8" ry="240"/>
<g>
	<path class="st1" d="M340.6,12.8L316.8-9.4c-5.7,11.8-13.5,21.8-25.8,26.7L310.1,38c2.5-1.2,5.3-1.9,8.3-2.1L340.6,12.8z"/>
	<path class="st1" d="M286.3,7.1c0-0.1,0-0.3,0-0.4c0.6-2.7,2-5.5,4.4-7.8l8.1-8.2c2.4-2.4,5.3-3.9,8-4.5c0,0,0.1,0,0.1,0l18.8-70.1
		l-69.4-39.2l-31.7,30.2l49.6,31.4l-8.3,27.3l-27.2,8.3l-31.2-49.8l-30.1,31.8l39,69.8L286.3,7.1z"/>
	<path class="st1" d="M336.2,50.3l-1.6-1.6c-4.5-4.6-10-7.1-15.4-7.1c-4.1,0-7.8,1.5-10.5,4.2l-121,108.2c-3.1,3.1-5.1,8.1-5.2,13.3
		c-0.2,5.8,1.9,11.1,5.8,15l14.8,14.9c4,4,9.8,6.4,16,6.4c5.4,0,10.4-1.8,13.4-4.8L340,77.5C346.4,71.1,344.6,58.7,336.2,50.3z"/>
	<path class="st1" d="M492.2,154L371.3,41.4l-21.9,22.9c0.6,4.9-0.1,9.7-2.5,13.7l106.3,115.3c0.6,0.6,1.5,0.8,2.5,0.8
		c5.2,0,15-6,19.1-10.1l8.1-8.2C487.9,170.8,495.6,157.4,492.2,154z M457.3,174.7c-7.6,0-13.8-6.2-13.8-13.9s6.2-13.9,13.8-13.9
		c7.6,0,13.8,6.2,13.8,13.9C471.2,168.5,465,174.7,457.3,174.7z"/>
	<path class="st1" d="M511.4-27.9c-3.9-3.9-10.1-3.9-14,0l-3.9,3.9c-3.2-4.5-8.6-12.1-7.9-14.6c2.9-11-19.5-37.1-19.5-37.1
		c-55.5-55.8-92.6-54.5-110.3-48.4c-7.1,2.5-5.8,4,1.6,5.3c53.5,9.4,60.2,41.1,51.1,53.4c-3.5,4.7-4.5,8.3-3.9,11.5
		c0.4,1.9,1.3,3.7,2.7,5.5l-81.8,85.3c4.7,1.3,9.3,3.9,13.2,7.8l1.6,1.6c3.4,3.5,5.9,7.5,7.4,11.6l80.9-84.3
		c1.5,1.3,3.1,2.4,4.8,3.2c4.4,2.3,9.2,3,14.5,0.4c6-3,23.7,11.5,29.1,15.4c0,0,0.1,0,0.1,0.1l-2.9,3c-3.9,3.9-3.9,10.2,0,14.1
		c3.9,3.9,10.1,3.9,14,0l23.3-23.5C515.2-17.8,515.2-24,511.4-27.9z"/>
</g>
</svg>
